<svg xmlns="http://www.w3.org/2000/svg" width="81" height="81" fill="none"><g clip-path="url(#a)"><path fill="#0098A0" d="m3.312 40.355 19 10.9 18.8-11z"/><path fill="#28D9DD" d="m41.112 40.555.1 21.7zl-18.7 32.6 19-10.9 18.5 10.4-18.7-32.2z"/><path fill="#1EBC69" d="m60.412 51.155-19-10.9h-.1l-.1.2 18.7 32.2z"/><path fill="#1EBC69" d="m41.212 40.355-.2-22 .1 21.8zl.2-.2 18.3-32-18.5 10.1-19-10.5 18.8 32.3z"/><path fill="#0098A0" d="m41.112 40.255-18.8 11 .1 21.9 18.8-32.8z"/><path fill="#28D9DD" d="m22.412 8.055.1 21.5 18.7 10.8z"/><path fill="#1EBC69" d="m41.012 40.055-18.7-10.7-19 11h37.9z"/><path fill="#0098A0" d="m59.812 8.055-18.6 32.3 19.3 10.6 17.4-11.1-17.8-10.4z"/><path fill="#fff" d="M40.612 47.355a7 7 0 1 0 0-14 7 7 0 0 0 0 14"/><path fill="#000" d="M78.512 39.355c-.1-.2-.1-.4-.2-.5q-.45-.75-1.2-1.2l-16-9.2-.1-18.5c0-.5-.1-1.1-.4-1.5-.3-.5-.7-.8-1.1-1.1-.1-.1-.2-.1-.4-.2-.9-.3-1.8-.3-2.6.2l-16 9.3-16-9.2c-.5-.3-1-.4-1.5-.4s-1 .1-1.5.4c-1 .5-1.5 1.5-1.5 2.6v18.5l-15.9 9.2c-.4.2-.8.6-1 1-.3.5-.5.9-.5 1.4v.4c0 .4.1.8.3 1.1q.45.75 1.2 1.2l16 9.2v18.5c0 1.1.6 2.1 1.5 2.6.5.3 1 .4 1.5.4s1.1-.1 1.5-.4l16-9.3 16 9.2c.4.2.9.3 1.3.4h.5c.4 0 .9-.2 1.2-.4q.6-.3.9-.9l.1-.1c.3-.5.5-1.1.5-1.7v-18.2l15.9-9.3c.4-.2.8-.6 1.1-1 .1-.2.2-.4.3-.7s.1-.6.1-.9q.15-.45 0-.9m-20.5-26.4v15.4l-11.1 6.4c-.3-.4-.6-.7-1-1zm-16 6.3 13.4-7.8-12 20.9c-.5-.2-.9-.3-1.4-.4zm-3 0v12.8c-.5.1-.9.2-1.4.4l-12-21zm-4 14.7c-.3.3-.7.6-.9 1l-11.1-6.4v-15.5zm-13.5-2.8 11.1 6.3c-.2.4-.3.9-.4 1.3h-23.9zm0 18.4-13.5-7.8h24.2c.1.5.2.9.4 1.4zm1.6 18.2v-15.6l11-6.4c.3.4.6.7 1 1zm2.6 1.4 12-20.9c.4.2.8.3 1.3.3v12.8zm16.4-7.7-.1-.1v-12.7c.5-.1.9-.2 1.3-.3l12 20.6zm3.9-14.6c.4-.3.8-.7 1.1-1.1l11.1 6.3v15.7zm13.6 2.7-11-6.4c.2-.4.3-.9.4-1.4h24zm-10.7-10.8c-.1-.5-.2-.9-.4-1.4l11-6.4 13.5 7.8z"/><path fill="#fff" d="M40.612 45.855a5.5 5.5 0 1 0 0-11 5.5 5.5 0 0 0 0 11"/></g><defs><clipPath id="a"><path fill="#fff" d="M2.612 6.955h76v66.8h-76z"/></clipPath></defs></svg>